<?xml version="1.0" encoding="UTF-8" standalone="no"?>
<svg width="142px" height="142px" viewBox="0 0 142 142" version="1.1" xmlns="http://www.w3.org/2000/svg" xmlns:xlink="http://www.w3.org/1999/xlink" xmlns:sketch="http://www.bohemiancoding.com/sketch/ns">
    <!-- Generator: Sketch 3.2.2 (9983) - http://www.bohemiancoding.com/sketch -->
    <title>142</title>
    <desc>Created with Sketch.</desc>
    <defs>
        <linearGradient x1="50%" y1="3.061617e-15%" x2="50%" y2="100%" id="linearGradient-1">
            <stop stop-color="#1AD6FD" offset="0%"></stop>
            <stop stop-color="#1D62F0" offset="100%"></stop>
        </linearGradient>
        <path d="M95.5782716,71.475276 C93.0485679,72.9255694 90.5264609,74.372076 87.9274372,75.8621294 C87.5115175,75.172956 87.0936986,74.5046094 86.6986698,73.823956 C84.5250617,70.0903027 82.3524033,66.3557027 80.1892407,62.617316 C78.2188447,59.212156 76.2664907,55.7965827 74.2960947,52.3914227 C72.1680669,48.7174094 70.0210473,45.054756 67.8977675,41.3788494 C67.4941924,40.6792627 67.0849198,39.965476 66.8180854,39.2090894 C66.5142171,38.3485694 66.9177922,37.5637827 67.4770998,36.9304627 C68.5558323,35.7092627 69.8938025,34.8402227 71.4891111,34.4549294 C72.9923097,34.0914094 74.186892,34.4000227 75.0092356,35.9175294 C76.4678035,38.6117427 78.0754568,41.226436 79.6137901,43.878996 C80.9944918,46.2608094 82.3581008,48.6511427 83.7397521,51.0310627 C85.8915195,54.736316 88.0575309,58.4321027 90.2045504,62.1392494 C92.0011718,65.238636 93.7788014,68.348436 95.5782716,71.475276 C95.5782716,71.475276 93.7788014,68.348436 95.5782716,71.475276 L95.5782716,71.475276 Z M48.3523879,88.5512494 C45.7704568,87.0659294 43.2492994,85.6165827 40.679713,84.138836 C46.7371379,73.6715427 52.7784198,63.230756 58.8491389,52.739796 C61.4139774,54.2147027 63.9465298,55.6716227 66.5256121,57.1550494 C60.4643889,67.6251827 54.4269053,78.0574494 48.3523879,88.5512494 C48.3523879,88.5512494 54.4269053,78.0574494 48.3523879,88.5512494 L48.3523879,88.5512494 Z M85.9570412,74.9220894 L57.6583549,74.9220894 C58.3980844,73.6403027 59.1064774,72.401116 59.8243663,71.1676094 C60.750215,69.578156 61.6751142,67.9868094 62.6266019,66.4125027 C62.7263086,66.2477827 63.0073868,66.099156 63.2039516,66.099156 C68.9613066,66.0830627 74.7186615,66.082116 80.4760165,66.1001027 C80.691573,66.1010494 81.0020885,66.2600894 81.1065432,66.4390094 C82.643927,69.066956 84.1556718,71.710996 85.671215,74.3531427 C85.7642747,74.5159694 85.8402418,74.6892094 85.9570412,74.9220894 C85.9570412,74.9220894 85.8402418,74.6892094 85.9570412,74.9220894 L85.9570412,74.9220894 Z M103.861532,100.394996 C103.65832,99.744636 103.490243,99.1614894 103.290829,98.5897027 C103.076222,97.9715294 102.87301,97.344836 102.593831,96.754116 C101.991792,95.478956 100.737386,95.052956 99.5608457,94.5351294 C96.6807438,93.2684894 94.9021646,91.093996 94.2953776,88.0277427 C94.1244516,87.163436 94.1586368,86.248956 94.1833261,85.3590894 C94.1899733,85.0949694 94.4188241,84.7342894 94.6533724,84.5951294 C96.4120103,83.5547427 98.1924887,82.5522227 99.9796142,81.5620094 C100.141994,81.4730227 100.442064,81.4872227 100.61299,81.577156 C103.77417,83.2347694 105.835726,85.7595294 106.613439,89.256516 C107.219277,91.9810227 106.816651,94.624116 105.760709,97.163076 C105.334344,98.188316 104.705716,99.1293027 104.162551,100.105316 C104.11887,100.185783 104.025811,100.239743 103.861532,100.394996 C103.861532,100.394996 104.025811,100.239743 103.861532,100.394996 L103.861532,100.394996 Z M33.1333333,74.869076 L33.1333333,66.0868494 L49.9239568,66.0868494 C49.5621636,66.740996 49.2250597,67.368636 48.8718128,67.9868094 C47.6098097,70.194436 46.3478066,72.4020627 45.0687109,74.6002227 C44.9832479,74.7488494 44.7629434,74.911676 44.6053117,74.9126227 C40.8306975,74.9277694 37.0551337,74.9211427 33.2805195,74.917356 C33.2444352,74.917356 33.2083508,74.894636 33.1333333,74.869076 C33.1333333,74.869076 33.2083508,74.894636 33.1333333,74.869076 L33.1333333,74.869076 Z M93.8804074,66.0868494 L110.481113,66.0868494 L110.481113,74.8823294 C110.347221,74.894636 110.197186,74.9192494 110.047151,74.9192494 C106.536523,74.9220894 103.025894,74.9268227 99.516215,74.9097827 C99.3054064,74.908836 98.9967901,74.789556 98.8980329,74.627676 C97.2362531,71.8795027 95.6001121,69.1161827 93.9601728,66.354756 C93.9231389,66.292276 93.9164918,66.2118094 93.8804074,66.0868494 C93.8804074,66.0868494 93.9164918,66.2118094 93.8804074,66.0868494 L93.8804074,66.0868494 Z M100.482896,79.745356 C97.9152088,81.2070094 95.3722109,82.6544627 92.7731872,84.1341027 C91.3345607,81.673716 89.9187243,79.2530894 88.5038374,76.8334094 C90.812287,75.5175427 93.1264342,74.1997827 95.4377325,72.8744494 C96.2012016,72.4370894 96.1983529,72.4257294 96.6313652,73.165076 C97.9028642,75.3338894 99.1715144,77.5036494 100.482896,79.745356 C100.482896,79.745356 99.1715144,77.5036494 100.482896,79.745356 L100.482896,79.745356 Z M67.2719887,56.1231827 C64.6701163,54.6407027 62.12332,53.1894627 59.5451872,51.7192894 C60.4938261,50.104276 61.4016327,48.485476 62.3844568,46.9130627 C62.9542099,46.0042627 63.9389331,45.7486627 64.9170093,45.9342094 C66.9120947,46.3147694 68.6090093,47.2832094 69.8102387,48.9446094 C70.377143,49.729396 70.4863457,50.6022227 69.9469794,51.504396 C69.0353745,53.029476 68.1655514,54.5763294 67.2719887,56.1231827 C67.2719887,56.1231827 68.1655514,54.5763294 67.2719887,56.1231827 L67.2719887,56.1231827 Z M40.1280021,85.4499694 C42.6681512,86.9068894 45.1484763,88.3297294 47.6601379,89.770556 C43.9206584,93.340436 40.2144146,96.879076 36.4350525,100.488716 C37.6742654,95.4410894 38.8906883,90.486236 40.1280021,85.4499694 C40.1280021,85.4499694 38.8906883,90.486236 40.1280021,85.4499694 L40.1280021,85.4499694 Z" id="path-2"></path>
    </defs>
    <g id="Page-1" stroke="none" stroke-width="1" fill="none" fill-rule="evenodd" sketch:type="MSPage">
        <g id="142" sketch:type="MSArtboardGroup">
            <g id="App-Store" sketch:type="MSLayerGroup">
                <path d="M49.5071167,0 L92.4928833,0 C106.7485,0 113.874533,0 121.54845,2.42583333 C129.92645,5.47528333 136.524717,12.07355 139.574167,20.45155 C142,28.1242833 142,35.2526833 142,49.5071167 L142,92.4928833 C142,106.7485 142,113.874533 139.574167,121.54845 C136.524717,129.92645 129.92645,136.524717 121.54845,139.572983 C113.874533,142 106.7485,142 92.4928833,142 L49.5071167,142 C35.2515,142 28.1242833,142 20.45155,139.572983 C12.07355,136.524717 5.47528333,129.92645 2.42583333,121.54845 C0,113.874533 0,106.7485 0,92.4928833 L0,49.5071167 C0,35.2526833 0,28.1242833 2.42583333,20.45155 C5.47528333,12.07355 12.07355,5.47528333 20.45155,2.42583333 C28.1242833,0 35.2515,0 49.5071167,0 L49.5071167,0" id="Superellipse" fill="url(#linearGradient-1)" sketch:type="MSShapeGroup"></path>
                <path d="M71,132.533333 C104.983922,132.533333 132.533333,104.983922 132.533333,71 C132.533333,37.0160784 104.983922,9.46666667 71,9.46666667 C37.0160784,9.46666667 9.46666667,37.0160784 9.46666667,71 C9.46666667,104.983922 37.0160784,132.533333 71,132.533333 Z M71,126.616667 C101.716237,126.616667 126.616667,101.716237 126.616667,71 C126.616667,40.2837632 101.716237,15.3833333 71,15.3833333 C40.2837632,15.3833333 15.3833333,40.2837632 15.3833333,71 C15.3833333,101.716237 40.2837632,126.616667 71,126.616667 Z" id="Ring" fill="#FFFFFF" sketch:type="MSShapeGroup"></path>
                <mask id="mask-3" sketch:name="App glyph" fill="white">
                    <use xlink:href="#path-2"></use>
                </mask>
                <use id="App-glyph" fill="#FFFFFF" sketch:type="MSShapeGroup" xlink:href="#path-2"></use>
            </g>
            <g id="soon" sketch:type="MSLayerGroup" transform="translate(-1.000000, -1.000000)">
                <path d="M33.045,0.968 C15.325,0.968 0.959,15.333 0.959,33.055 L0.959,57.318 L59.402,0.968 L33.045,0.968 L33.045,0.968 Z M16.516,33.971 C15.625,34.819 14.804,35.223 14.051,35.177 C13.299,35.131 12.629,34.825 12.042,34.261 L12.998,33.351 C13.343,33.654 13.671,33.828 13.979,33.872 C14.54,33.948 15.135,33.684 15.766,33.083 C16.143,32.725 16.398,32.33 16.53,31.896 C16.663,31.463 16.57,31.08 16.25,30.744 C16.009,30.491 15.71,30.406 15.355,30.493 C15.131,30.549 14.754,30.731 14.222,31.034 L13.229,31.601 C12.597,31.963 12.086,32.185 11.694,32.261 C11.006,32.408 10.433,32.242 9.979,31.767 C9.446,31.207 9.219,30.559 9.297,29.822 C9.375,29.087 9.761,28.389 10.451,27.731 C11.354,26.87 12.255,26.512 13.152,26.653 C13.719,26.746 14.181,26.989 14.539,27.378 L13.599,28.273 C13.368,28.069 13.092,27.942 12.775,27.895 C12.294,27.858 11.764,28.114 11.187,28.664 C10.802,29.032 10.58,29.379 10.518,29.711 C10.456,30.044 10.538,30.328 10.761,30.563 C11.007,30.818 11.332,30.9 11.74,30.807 C11.977,30.756 12.275,30.626 12.635,30.416 L13.457,29.937 C14.351,29.418 14.998,29.12 15.4,29.046 C16.029,28.931 16.604,29.147 17.123,29.69 C17.625,30.219 17.857,30.866 17.818,31.635 C17.778,32.404 17.344,33.182 16.516,33.971 L16.516,33.971 Z M22.269,28.456 C21.461,29.227 20.557,29.563 19.557,29.465 C18.556,29.37 17.615,28.856 16.731,27.93 C15.784,26.937 15.28,25.906 15.22,24.84 C15.16,23.773 15.552,22.838 16.396,22.033 C17.154,21.31 18.036,20.955 19.043,20.964 C20.051,20.974 21.023,21.47 21.965,22.457 C22.873,23.411 23.393,24.418 23.525,25.479 C23.657,26.54 23.238,27.532 22.269,28.456 L22.269,28.456 Z M28.562,22.457 C27.753,23.228 26.85,23.565 25.85,23.468 C24.85,23.371 23.908,22.859 23.023,21.932 C22.077,20.938 21.573,19.908 21.512,18.842 C21.453,17.774 21.845,16.838 22.69,16.033 C23.447,15.312 24.329,14.956 25.336,14.964 C26.343,14.974 27.316,15.472 28.256,16.457 C29.166,17.411 29.685,18.418 29.816,19.48 C29.95,20.541 29.53,21.533 28.562,22.457 L28.562,22.457 Z M29.683,13.369 C29.831,13.625 30.089,13.945 30.458,14.332 L33.414,17.432 L32.419,18.379 L26.779,12.462 L27.724,11.562 L28.522,12.402 C28.474,11.789 28.532,11.258 28.703,10.809 C28.87,10.359 29.147,9.952 29.53,9.585 C30.37,8.786 31.216,8.538 32.068,8.843 C32.537,9.008 33.055,9.389 33.624,9.986 L37.241,13.781 L36.231,14.745 L32.676,11.017 C32.332,10.656 32,10.415 31.683,10.296 C31.156,10.097 30.659,10.217 30.195,10.66 C29.959,10.884 29.79,11.093 29.684,11.286 C29.488,11.626 29.404,12.017 29.429,12.455 C29.45,12.809 29.534,13.113 29.683,13.369 L29.683,13.369 Z" id="Fill-1" fill="#FCE841" sketch:type="MSShapeGroup"></path>
                <path d="M19.405,22.378 C18.61,22.098 17.873,22.281 17.196,22.926 C16.595,23.498 16.379,24.147 16.548,24.871 C16.717,25.594 17.113,26.285 17.738,26.939 C18.337,27.568 18.974,27.961 19.646,28.122 C20.32,28.28 20.952,28.077 21.546,27.512 C22.197,26.889 22.407,26.213 22.174,25.485 C21.941,24.756 21.533,24.086 20.951,23.473 C20.424,22.922 19.91,22.558 19.405,22.378" id="Fill-2" fill="#FCE841" sketch:type="MSShapeGroup"></path>
                <path d="M25.699,16.379 C24.903,16.099 24.167,16.281 23.489,16.926 C22.888,17.499 22.672,18.148 22.84,18.873 C23.01,19.596 23.405,20.286 24.031,20.94 C24.63,21.569 25.266,21.964 25.938,22.123 C26.612,22.281 27.245,22.079 27.838,21.512 C28.491,20.891 28.701,20.216 28.468,19.485 C28.234,18.756 27.826,18.086 27.245,17.476 C26.717,16.924 26.202,16.558 25.699,16.379" id="Fill-3" fill="#FCE841" sketch:type="MSShapeGroup"></path>
                <path d="M15.4,29.046 C14.998,29.12 14.351,29.418 13.457,29.937 L12.635,30.416 C12.275,30.626 11.977,30.756 11.74,30.807 C11.332,30.9 11.007,30.818 10.761,30.563 C10.538,30.328 10.456,30.044 10.518,29.711 C10.58,29.379 10.802,29.032 11.187,28.664 C11.764,28.114 12.294,27.858 12.775,27.895 C13.092,27.942 13.368,28.069 13.599,28.273 L14.539,27.378 C14.181,26.989 13.719,26.746 13.152,26.653 C12.255,26.512 11.354,26.87 10.451,27.731 C9.761,28.389 9.375,29.087 9.297,29.822 C9.219,30.559 9.446,31.207 9.979,31.767 C10.433,32.242 11.006,32.408 11.694,32.261 C12.086,32.185 12.597,31.963 13.229,31.601 L14.222,31.034 C14.754,30.731 15.131,30.549 15.355,30.493 C15.71,30.406 16.009,30.491 16.25,30.744 C16.57,31.08 16.663,31.463 16.53,31.896 C16.398,32.33 16.143,32.725 15.766,33.083 C15.135,33.684 14.54,33.948 13.979,33.872 C13.671,33.828 13.343,33.654 12.998,33.351 L12.042,34.261 C12.629,34.825 13.299,35.131 14.051,35.177 C14.804,35.223 15.625,34.819 16.516,33.971 C17.344,33.182 17.778,32.404 17.818,31.635 C17.857,30.866 17.625,30.219 17.123,29.69 C16.604,29.147 16.029,28.931 15.4,29.046" id="Fill-4" fill="#A15D2E" sketch:type="MSShapeGroup"></path>
                <path d="M19.043,20.964 C18.036,20.955 17.154,21.31 16.396,22.033 C15.552,22.838 15.16,23.773 15.22,24.84 C15.28,25.906 15.784,26.937 16.731,27.93 C17.615,28.856 18.556,29.37 19.557,29.465 C20.557,29.563 21.461,29.227 22.269,28.456 C23.238,27.532 23.657,26.54 23.525,25.479 C23.393,24.418 22.873,23.411 21.965,22.457 C21.023,21.47 20.051,20.974 19.043,20.964 L19.043,20.964 Z M21.546,27.512 C20.952,28.077 20.32,28.28 19.646,28.122 C18.974,27.961 18.337,27.568 17.738,26.939 C17.113,26.285 16.717,25.594 16.548,24.871 C16.379,24.147 16.595,23.498 17.196,22.926 C17.873,22.281 18.61,22.098 19.405,22.378 C19.91,22.558 20.424,22.922 20.951,23.473 C21.533,24.086 21.941,24.756 22.174,25.485 C22.407,26.213 22.197,26.889 21.546,27.512 L21.546,27.512 Z" id="Fill-5" fill="#A15D2E" sketch:type="MSShapeGroup"></path>
                <path d="M25.336,14.964 C24.329,14.956 23.447,15.312 22.69,16.033 C21.845,16.838 21.453,17.774 21.512,18.842 C21.573,19.908 22.077,20.938 23.023,21.932 C23.908,22.859 24.85,23.371 25.85,23.468 C26.85,23.565 27.753,23.228 28.562,22.457 C29.53,21.533 29.95,20.541 29.816,19.48 C29.685,18.418 29.166,17.411 28.256,16.457 C27.316,15.472 26.343,14.974 25.336,14.964 L25.336,14.964 Z M27.838,21.512 C27.245,22.079 26.612,22.281 25.938,22.123 C25.266,21.964 24.63,21.569 24.031,20.94 C23.405,20.286 23.01,19.596 22.84,18.873 C22.672,18.148 22.888,17.499 23.489,16.926 C24.167,16.281 24.903,16.099 25.699,16.379 C26.202,16.558 26.717,16.924 27.245,17.476 C27.826,18.086 28.234,18.756 28.468,19.485 C28.701,20.216 28.491,20.891 27.838,21.512 L27.838,21.512 Z" id="Fill-6" fill="#A15D2E" sketch:type="MSShapeGroup"></path>
                <path d="M30.195,10.66 C30.659,10.217 31.156,10.097 31.683,10.296 C32,10.415 32.332,10.656 32.676,11.017 L36.231,14.745 L37.241,13.781 L33.624,9.986 C33.055,9.389 32.537,9.008 32.068,8.843 C31.216,8.538 30.37,8.786 29.53,9.585 C29.147,9.952 28.87,10.359 28.703,10.809 C28.532,11.258 28.474,11.789 28.522,12.402 L27.724,11.562 L26.779,12.462 L32.419,18.379 L33.414,17.432 L30.458,14.332 C30.089,13.945 29.831,13.625 29.683,13.369 C29.534,13.113 29.45,12.809 29.429,12.455 C29.404,12.017 29.488,11.626 29.684,11.286 C29.79,11.093 29.959,10.884 30.195,10.66" id="Fill-7" fill="#A15D2E" sketch:type="MSShapeGroup"></path>
            </g>
        </g>
    </g>
</svg>