<?xml version="1.0" encoding="UTF-8" standalone="no"?>
<svg width="142px" height="142px" viewBox="0 0 142 142" version="1.1" xmlns="http://www.w3.org/2000/svg" xmlns:xlink="http://www.w3.org/1999/xlink" xmlns:sketch="http://www.bohemiancoding.com/sketch/ns">
    <!-- Generator: Sketch 3.2.2 (9983) - http://www.bohemiancoding.com/sketch -->
    <title>142</title>
    <desc>Created with Sketch.</desc>
    <defs>
        <linearGradient x1="50%" y1="100%" x2="50%" y2="1.11022302e-14%" id="linearGradient-1">
            <stop stop-color="#1AD6FD" offset="0%"></stop>
            <stop stop-color="#1D62F0" offset="100%"></stop>
        </linearGradient>
    </defs>
    <g id="Page-1" stroke="none" stroke-width="1" fill="none" fill-rule="evenodd" sketch:type="MSPage">
        <g id="142" sketch:type="MSArtboardGroup">
            <g id="Mail" sketch:type="MSLayerGroup">
                <path d="M49.5071167,0 L92.4928833,0 C106.7485,0 113.874533,0 121.54845,2.42583333 C129.92645,5.47528333 136.524717,12.07355 139.574167,20.45155 C142,28.1242833 142,35.2526833 142,49.5071167 L142,92.4928833 C142,106.7485 142,113.874533 139.574167,121.54845 C136.524717,129.92645 129.92645,136.524717 121.54845,139.572983 C113.874533,142 106.7485,142 92.4928833,142 L49.5071167,142 C35.2515,142 28.1242833,142 20.45155,139.572983 C12.07355,136.524717 5.47528333,129.92645 2.42583333,121.54845 C0,113.874533 0,106.7485 0,92.4928833 L0,49.5071167 C0,35.2526833 0,28.1242833 2.42583333,20.45155 C5.47528333,12.07355 12.07355,5.47528333 20.45155,2.42583333 C28.1242833,0 35.2515,0 49.5071167,0 L49.5071167,0" id="Superellipse" fill="url(#linearGradient-1)" sketch:type="MSShapeGroup"></path>
                <path d="M117.894317,44.1880333 C117.894317,43.6141167 117.745217,43.07925 117.503817,42.6 L88.75,71.3538167 L117.539317,100.143133 C117.7606,99.6792667 117.894317,99.1680667 117.894317,98.6213667 L117.894317,44.1880333 Z M23.5956667,42.6426 C23.3672833,43.1112 23.22765,43.6306833 23.22765,44.1880333 L23.22765,98.6213667 C23.22765,99.1680667 23.3613667,99.68045 23.58265,100.143133 L52.3388333,71.3857667 L23.5956667,42.6426 Z M75.5487333,81.2086167 L115.799817,40.95635 C115.354883,40.7551833 114.864983,40.6380333 114.344317,40.6380333 L26.77765,40.6380333 C26.2404167,40.6380333 25.7363167,40.7658333 25.27955,40.9800167 L65.50815,81.2086167 C68.2807,83.9811667 72.7761833,83.9811667 75.5487333,81.2086167 Z M87.0767667,73.02705 L77.2219667,82.88185 C73.5252333,86.5785833 67.53165,86.5785833 63.8349167,82.88185 L54.01325,73.0601833 L25.2558833,101.816367 C25.7185667,102.03765 26.23095,102.171367 26.77765,102.171367 L114.344317,102.171367 C114.891017,102.171367 115.4034,102.036467 115.866083,101.816367 L87.0767667,73.02705 Z" id="Envelope" fill="#FFFFFF" sketch:type="MSShapeGroup"></path>
            </g>
        </g>
    </g>
</svg>