<?xml version="1.0" encoding="UTF-8" standalone="no"?>
<svg width="142px" height="142px" viewBox="0 0 142 142" version="1.1" xmlns="http://www.w3.org/2000/svg" xmlns:xlink="http://www.w3.org/1999/xlink" xmlns:sketch="http://www.bohemiancoding.com/sketch/ns">
    <!-- Generator: Sketch 3.2.2 (9983) - http://www.bohemiancoding.com/sketch -->
    <title>142</title>
    <desc>Created with Sketch.</desc>
    <defs>
        <linearGradient x1="50%" y1="30.703125%" x2="50%" y2="100%" id="linearGradient-1">
            <stop stop-color="#FFFFFF" offset="0%"></stop>
            <stop stop-color="#F2F2F2" offset="100%"></stop>
        </linearGradient>
        <path id="path-2" d="M49.5071167,0 L92.4928833,0 C106.7485,0 113.874533,0 121.54845,2.42583333 C129.92645,5.47528333 136.524717,12.07355 139.574167,20.45155 C142,28.1242833 142,35.2526833 142,49.5071167 L142,92.4928833 C142,106.7485 142,113.874533 139.574167,121.54845 C136.524717,129.92645 129.92645,136.524717 121.54845,139.572983 C113.874533,142 106.7485,142 92.4928833,142 L49.5071167,142 C35.2515,142 28.1242833,142 20.45155,139.572983 C12.07355,136.524717 5.47528333,129.92645 2.42583333,121.54845 C0,113.874533 0,106.7485 0,92.4928833 L0,49.5071167 C0,35.2526833 0,28.1242833 2.42583333,20.45155 C5.47528333,12.07355 12.07355,5.47528333 20.45155,2.42583333 C28.1242833,0 35.2515,0 49.5071167,0 L49.5071167,0"></path>
        <linearGradient x1="49.999638%" y1="-1.4785171%" x2="49.999638%" y2="101.48011%" id="linearGradient-4">
            <stop stop-color="#57C7DC" offset="0%"></stop>
            <stop stop-color="#1097D4" offset="100%"></stop>
        </linearGradient>
        <linearGradient x1="49.9956668%" y1="-0.00308794466%" x2="49.9956668%" y2="100.004941%" id="linearGradient-5">
            <stop stop-color="#57C7DC" offset="0%"></stop>
            <stop stop-color="#1097D4" offset="100%"></stop>
        </linearGradient>
    </defs>
    <g id="Page-1" stroke="none" stroke-width="1" fill="none" fill-rule="evenodd" sketch:type="MSPage">
        <g id="142" sketch:type="MSArtboardGroup">
            <g id="pig" sketch:type="MSLayerGroup">
                <mask id="mask-3" sketch:name="Superellipse 3" fill="white">
                    <use xlink:href="#path-2"></use>
                </mask>
                <use id="Superellipse-3" fill="url(#linearGradient-1)" sketch:type="MSShapeGroup" xlink:href="#path-2"></use>
                <g id="Shape-+-Shape" mask="url(#mask-3)" sketch:type="MSShapeGroup">
                    <g transform="translate(23.000000, 27.000000)" id="Shape">
                        <path d="M6.21030952,11.6044211 L18.7614167,7.15810526 L21.6922024,8.90189474 C28.9637381,3.42389474 38.0020595,0.169052632 47.8025238,0.169052632 C55.2749881,0.169052632 62.3109524,2.06221053 68.453131,5.39347368 L75.9152024,0.575473684 L89.865881,4.94884211 L96.5069167,24.398 L86.4535595,23.7866316 C89.5437024,29.7787368 91.3000952,36.5767368 91.3000952,43.7881053 C91.3000952,67.8781053 71.823881,87.4036842 47.8025238,87.4036842 C23.7811667,87.4036842 4.30495238,67.8781053 4.30495238,43.7881053 C4.30495238,38.5706316 5.2229881,33.5685263 6.89970238,28.9311579 L0.812952381,29.5251579 L6.21030952,11.6044211 L6.21030952,11.6044211 Z M46.7216667,59.6663158 C31.9014524,58.8048421 19.5374167,64.2133684 19.1009167,71.7477895 C18.667881,79.2787368 30.3286667,86.0836842 45.148881,86.9451579 C59.9690952,87.8031579 72.333131,82.3911579 72.7661667,74.8602105 C73.2026667,67.3292632 61.541881,60.5243158 46.7216667,59.6663158 L46.7216667,59.6663158 Z" stroke="url(#linearGradient-4)" stroke-width="2.5" stroke-linejoin="round" fill="none"></path>
                        <path d="M40.7492381,74.5962105 C40.7492381,77.3543158 38.5182381,79.5878947 35.7675952,79.5878947 C33.0204167,79.5878947 30.7859524,77.3543158 30.7859524,74.5962105 C30.7859524,71.8346316 33.0169524,69.6010526 35.7675952,69.6010526 C38.5182381,69.5975789 40.7492381,71.8346316 40.7492381,74.5962105 L40.7492381,74.5962105 Z M51.3984524,67.5307368 C47.5115238,67.5307368 44.3590238,70.6917895 44.3590238,74.5927368 C44.3590238,78.4902105 47.5115238,81.6512632 51.3984524,81.6512632 C55.2888452,81.6512632 58.4413452,78.4902105 58.4413452,74.5927368 C58.4413452,70.6952632 55.2888452,67.5307368 51.3984524,67.5307368 L51.3984524,67.5307368 Z M33.9176667,44.0138947 C33.9176667,49.3772632 29.5838452,53.7228421 24.2349881,53.7228421 C18.886131,53.7228421 14.5523095,49.3772632 14.5523095,44.0138947 C14.5523095,43.8158947 14.569631,43.6283158 14.5800238,43.4372632 C20.8088095,43.2218947 27.2350595,42.5410526 33.5747024,41.4781053 C33.7929524,42.2874737 33.9176667,43.1350526 33.9176667,44.0138947 L33.9176667,44.0138947 Z M30.235131,47.0846316 C30.235131,46.2752632 29.5838452,45.6187368 28.7766667,45.6187368 C27.9729524,45.6187368 27.3182024,46.2717895 27.3182024,47.0846316 C27.3182024,47.8905263 27.9729524,48.5505263 28.7766667,48.5505263 C29.5838452,48.5505263 30.235131,47.8905263 30.235131,47.0846316 L30.235131,47.0846316 Z M78.5099524,36.0869474 C78.5099524,46.6295789 69.9878095,55.1748421 59.4737024,55.1748421 C50.3279881,55.1748421 42.6892381,48.7033684 40.8600952,40.0747368 C45.9456667,38.9701053 50.8926667,37.6257895 55.552131,36.0869474 C63.3433095,33.5129474 69.8908095,29.8273684 75.2500595,25.4053684 C77.304381,28.4517895 78.5099524,32.1304211 78.5099524,36.0869474 L78.5099524,36.0869474 Z M73.6807381,39.5745263 C73.6807381,37.8168421 72.260381,36.3926316 70.5074524,36.3926316 C68.7545238,36.3926316 67.3341667,37.8168421 67.3341667,39.5745263 C67.3341667,41.3287368 68.7545238,42.7529474 70.5074524,42.7529474 C72.260381,42.7529474 73.6807381,41.3252632 73.6807381,39.5745263 L73.6807381,39.5745263 Z" stroke="none" fill="url(#linearGradient-5)" fill-rule="evenodd"></path>
                    </g>
                </g>
            </g>
        </g>
    </g>
</svg>