<?xml version="1.0" encoding="UTF-8" standalone="no"?>
<svg width="142px" height="142px" viewBox="0 0 142 142" version="1.1" xmlns="http://www.w3.org/2000/svg" xmlns:xlink="http://www.w3.org/1999/xlink" xmlns:sketch="http://www.bohemiancoding.com/sketch/ns">
    <!-- Generator: Sketch 3.2.2 (9983) - http://www.bohemiancoding.com/sketch -->
    <title>142</title>
    <desc>Created with Sketch.</desc>
    <defs>
        <linearGradient x1="50%" y1="0%" x2="50%" y2="100%" id="linearGradient-1">
            <stop stop-color="#67FF81" offset="0%"></stop>
            <stop stop-color="#01B520" offset="100%"></stop>
        </linearGradient>
    </defs>
    <g id="Page-1" stroke="none" stroke-width="1" fill="none" fill-rule="evenodd" sketch:type="MSPage">
        <g id="142" sketch:type="MSArtboardGroup">
            <g id="Messages" sketch:type="MSLayerGroup">
                <path d="M49.5071167,0 L92.4928833,0 C106.7485,0 113.874533,0 121.54845,2.42583333 C129.92645,5.47528333 136.524717,12.07355 139.574167,20.45155 C142,28.1242833 142,35.2526833 142,49.5071167 L142,92.4928833 C142,106.7485 142,113.874533 139.574167,121.54845 C136.524717,129.92645 129.92645,136.524717 121.54845,139.572983 C113.874533,142 106.7485,142 92.4928833,142 L49.5071167,142 C35.2515,142 28.1242833,142 20.45155,139.572983 C12.07355,136.524717 5.47528333,129.92645 2.42583333,121.54845 C0,113.874533 0,106.7485 0,92.4928833 L0,49.5071167 C0,35.2526833 0,28.1242833 2.42583333,20.45155 C5.47528333,12.07355 12.07355,5.47528333 20.45155,2.42583333 C28.1242833,0 35.2515,0 49.5071167,0 L49.5071167,0" id="Superellipse" fill="url(#linearGradient-1)" sketch:type="MSShapeGroup"></path>
                <path d="M71,24.8358728 C42.245,24.8358728 18.9333333,44.1739062 18.9333333,68.0275395 C18.9333333,82.0038895 28.5822333,95.8571728 43.1123833,103.972473 C43.6661833,104.68839 44.08035,105.940356 43.3928333,108.056156 C42.3148167,111.37304 36.4880833,116.862523 36.7401333,116.96429 C38.8310833,117.813923 45.6388,115.868523 50.2514333,112.756356 C53.9245,110.278456 58.2223667,110.118706 60.6363667,110.27609 C63.9863833,110.89024 67.4511833,111.219206 71,111.219206 C99.755,111.219206 123.066667,91.8811728 123.066667,68.0275395 C123.066667,44.1739062 99.755,24.8358728 71,24.8358728" id="Bubble" fill="#FFFFFF" sketch:type="MSShapeGroup"></path>
            </g>
        </g>
    </g>
</svg>