<?xml version="1.0" encoding="UTF-8" standalone="no"?>
<svg width="142px" height="142px" viewBox="0 0 142 142" version="1.1" xmlns="http://www.w3.org/2000/svg" xmlns:xlink="http://www.w3.org/1999/xlink" xmlns:sketch="http://www.bohemiancoding.com/sketch/ns">
    <!-- Generator: Sketch 3.2.2 (9983) - http://www.bohemiancoding.com/sketch -->
    <title>142</title>
    <desc>Created with Sketch.</desc>
    <defs>
        <linearGradient x1="50%" y1="100%" x2="50%" y2="1.11022302e-14%" id="linearGradient-1">
            <stop stop-color="#FF5E3A" offset="0%"></stop>
            <stop stop-color="#FF313E" offset="49.9519857%"></stop>
            <stop stop-color="#FF2969" offset="100%"></stop>
        </linearGradient>
    </defs>
    <g id="Page-1" stroke="none" stroke-width="1" fill="none" fill-rule="evenodd" sketch:type="MSPage">
        <g id="142" sketch:type="MSArtboardGroup">
            <g id="Music" sketch:type="MSLayerGroup">
                <path d="M49.5071167,0 L92.4928833,0 C106.7485,0 113.874533,0 121.54845,2.42583333 C129.92645,5.47528333 136.524717,12.07355 139.574167,20.45155 C142,28.1242833 142,35.2526833 142,49.5071167 L142,92.4928833 C142,106.7485 142,113.874533 139.574167,121.54845 C136.524717,129.92645 129.92645,136.524717 121.54845,139.572983 C113.874533,142 106.7485,142 92.4928833,142 L49.5071167,142 C35.2515,142 28.1242833,142 20.45155,139.572983 C12.07355,136.524717 5.47528333,129.92645 2.42583333,121.54845 C0,113.874533 0,106.7485 0,92.4928833 L0,49.5071167 C0,35.2526833 0,28.1242833 2.42583333,20.45155 C5.47528333,12.07355 12.07355,5.47528333 20.45155,2.42583333 C28.1242833,0 35.2515,0 49.5071167,0 L49.5071167,0" id="Superellipse" fill="url(#linearGradient-1)" sketch:type="MSShapeGroup"></path>
                <path d="M103.654428,59.5763275 C103.654428,70.5896544 103.671317,81.6015738 103.648798,92.6120857 C103.633316,99.4157179 99.5235507,104.547295 93.6769871,106.248907 C92.4567246,106.604992 91.1562372,106.809073 89.8867137,106.841445 C87.6516769,106.896335 85.4053805,106.851297 83.1745661,106.693662 C78.6707135,106.372763 74.6425805,102.831609 73.6432882,98.4417598 C72.2161299,92.1828122 76.1415189,86.175799 82.4511347,84.9991675 C83.236494,84.8527923 84.0485949,84.8049388 84.8494362,84.8007165 C88.2991057,84.7796047 91.7529976,84.7120469 95.1998523,84.8246432 C96.8409435,84.8795339 98.1752098,83.4073371 98.1667651,81.8915093 C98.1034297,70.8232917 98.107652,59.7522593 98.1597278,48.6840417 C98.1681725,46.9753927 97.1787324,45.788909 95.1801479,46.1801812 C89.3223247,47.3272562 83.4785761,48.5447038 77.6277902,49.7213353 C72.641181,50.7234424 67.648942,51.7100676 62.6595179,52.7037301 C60.625747,53.1090768 58.5863463,53.4890894 56.5582052,53.9254001 C55.0100059,54.2575592 53.9403409,56.0182841 53.9431558,57.2469913 C53.983972,72.7163172 53.9825645,88.1842357 53.9642676,103.652154 C53.9558229,110.468453 49.8193159,115.60003 43.9924567,117.29179 C42.7721941,117.645061 41.4717067,117.850549 40.2007759,117.882921 C37.965739,117.937811 35.7194426,117.895588 33.4886282,117.735138 C28.9397371,117.407201 24.9200488,113.798489 23.9446832,109.395974 C22.5287846,103.015985 26.684996,97.1722363 32.6863794,96.0631627 C33.4998878,95.9125651 34.3401378,95.8478222 35.1677207,95.8407849 C38.6173902,95.8182657 42.0698746,95.7535228 45.5167293,95.8661191 C47.1564131,95.9196024 48.486457,94.448813 48.4822347,92.9301703 C48.4301589,74.5572669 48.4484558,56.1843636 48.4484558,37.8128677 C48.4484558,33.5116886 50.7285311,30.902269 54.960745,30.0873532 C62.8917478,28.5602657 70.8044537,26.9388788 78.7256043,25.3569006 C85.419455,24.0212269 92.1104909,22.6700711 98.811379,21.361139 C100.849372,20.9614221 103.083002,22.5743643 103.468644,24.660211 C103.588278,25.3062323 103.645983,25.971958 103.647391,26.6264241 C103.657243,37.6101944 103.654428,48.5939647 103.654428,59.5763275" id="Note-glyph" fill="#FFFFFF" sketch:type="MSShapeGroup"></path>
            </g>
        </g>
    </g>
</svg>