<?xml version="1.0" encoding="UTF-8" standalone="no"?>
<svg width="142px" height="142px" viewBox="0 0 142 142" version="1.1" xmlns="http://www.w3.org/2000/svg" xmlns:xlink="http://www.w3.org/1999/xlink" xmlns:sketch="http://www.bohemiancoding.com/sketch/ns">
    <!-- Generator: Sketch 3.2.2 (9983) - http://www.bohemiancoding.com/sketch -->
    <title>142</title>
    <desc>Created with Sketch.</desc>
    <defs>
        <linearGradient x1="50%" y1="30.703125%" x2="50%" y2="100%" id="linearGradient-1">
            <stop stop-color="#58C7DC" offset="0%"></stop>
            <stop stop-color="#0B98D5" offset="100%"></stop>
        </linearGradient>
        <path id="path-2" d="M49.5071167,0 L92.4928833,0 C106.7485,0 113.874533,0 121.54845,2.42583333 C129.92645,5.47528333 136.524717,12.07355 139.574167,20.45155 C142,28.1242833 142,35.2526833 142,49.5071167 L142,92.4928833 C142,106.7485 142,113.874533 139.574167,121.54845 C136.524717,129.92645 129.92645,136.524717 121.54845,139.572983 C113.874533,142 106.7485,142 92.4928833,142 L49.5071167,142 C35.2515,142 28.1242833,142 20.45155,139.572983 C12.07355,136.524717 5.47528333,129.92645 2.42583333,121.54845 C0,113.874533 0,106.7485 0,92.4928833 L0,49.5071167 C0,35.2526833 0,28.1242833 2.42583333,20.45155 C5.47528333,12.07355 12.07355,5.47528333 20.45155,2.42583333 C28.1242833,0 35.2515,0 49.5071167,0 L49.5071167,0"></path>
        <rect id="path-4" x="0.375" y="0.312" width="142" height="142.001"></rect>
        <rect id="path-6" x="0.375" y="0.312" width="142" height="142.001"></rect>
        <rect id="path-8" x="0.375" y="0.312" width="142" height="142.001"></rect>
        <rect id="path-10" x="0.375" y="0.312" width="142" height="142.001"></rect>
        <rect id="path-12" x="0.375" y="0.312" width="142" height="142.001"></rect>
        <rect id="path-14" x="0.375" y="0.312" width="142" height="142.001"></rect>
        <rect id="path-16" x="0.375" y="0.312" width="142" height="142.001"></rect>
        <rect id="path-18" x="0.375" y="0.312" width="142" height="142.001"></rect>
        <rect id="path-20" x="0.375" y="0.312" width="142" height="142.001"></rect>
    </defs>
    <g id="Page-1" stroke="none" stroke-width="1" fill="none" fill-rule="evenodd" sketch:type="MSPage">
        <g id="142" sketch:type="MSArtboardGroup">
            <g id="shop" sketch:type="MSLayerGroup">
                <mask id="mask-3" sketch:name="Superellipse 2" fill="white">
                    <use xlink:href="#path-2"></use>
                </mask>
                <use id="Superellipse-2" fill="url(#linearGradient-1)" sketch:type="MSShapeGroup" xlink:href="#path-2"></use>
                <g id="Group" mask="url(#mask-3)">
                    <g transform="translate(-1.000000, -1.000000)" id="Clipped">
                        <g>
                            <mask id="mask-5" sketch:name="SVGID_6_" fill="white">
                                <use xlink:href="#path-4"></use>
                            </mask>
                            <g id="SVGID_6_"></g>
                            <path d="M110.872,52.563 L110.872,43.609 C110.872,40.081 108.013,37.221 104.484,37.221 L39.539,37.221 C36.011,37.221 33.15,40.081 33.15,43.609 L33.15,52.563 L110.872,52.563 L110.872,52.563 Z" id="Shape" fill="#FFFFFF" sketch:type="MSShapeGroup" mask="url(#mask-5)"></path>
                        </g>
                        <g>
                            <mask id="mask-7" sketch:name="SVGID_6_" fill="white">
                                <use xlink:href="#path-6"></use>
                            </mask>
                            <g id="SVGID_6_"></g>
                            <path d="M33.109,55.064 L33.109,104.968 C33.109,108.495 35.969,111.357 39.497,111.357 L104.443,111.357 C107.97,111.357 110.831,108.496 110.831,104.968 L110.831,55.064 L33.109,55.064 L33.109,55.064 Z M86.344,83.211 C86.344,91.68 79.48,98.545 71.011,98.545 C68.875,98.545 66.845,98.106 64.997,97.318 C64.126,96.976 63.364,96.566 62.739,96.109 C58.495,93.382 55.677,88.63 55.677,83.211 C55.677,81.377 55.999,79.617 56.591,77.988 L54.445,78.197 L56.348,71.896 L60.772,70.334 L61.806,70.947 C64.368,69.019 67.556,67.876 71.009,67.876 C73.644,67.876 76.122,68.542 78.288,69.712 L80.919,68.019 L85.836,69.556 L88.178,76.394 L84.633,76.179 C85.725,78.285 86.344,80.676 86.344,83.211 L86.344,83.211 Z" id="Shape" fill="#FFFFFF" sketch:type="MSShapeGroup" mask="url(#mask-7)"></path>
                        </g>
                        <g>
                            <mask id="mask-9" sketch:name="SVGID_6_" fill="white">
                                <use xlink:href="#path-8"></use>
                            </mask>
                            <g id="SVGID_6_"></g>
                            <path d="M54.819,27.891 C50.653,31.791 50.088,37.54 50.088,37.54 L46.474,37.493 C46.474,37.493 46.592,30.135 52.453,25.335 C58.313,20.535 65.281,20.535 65.281,20.535 C65.281,20.535 71.888,20.084 78.167,24.699 C84.447,29.313 84.759,37.526 84.759,37.526 L81.569,37.563 C81.569,37.563 81.265,31.145 76.054,27.148 C70.843,23.15 65.347,23.667 65.347,23.667 C65.347,23.667 58.985,23.991 54.819,27.891" id="Shape" fill="#FFFFFF" sketch:type="MSShapeGroup" mask="url(#mask-9)"></path>
                        </g>
                        <g>
                            <mask id="mask-11" sketch:name="SVGID_6_" fill="white">
                                <use xlink:href="#path-10"></use>
                            </mask>
                            <g id="SVGID_6_"></g>
                            <path d="M67.61,27.891 C63.444,31.791 62.879,37.54 62.879,37.54 L59.265,37.493 C59.265,37.493 59.383,30.135 65.244,25.335 C71.105,20.535 78.073,20.535 78.073,20.535 C78.073,20.535 84.68,20.084 90.959,24.699 C97.239,29.313 97.55,37.526 97.55,37.526 L94.361,37.563 C94.361,37.563 94.057,31.145 88.845,27.148 C83.634,23.15 78.138,23.667 78.138,23.667 C78.138,23.667 71.776,23.991 67.61,27.891" id="Shape" fill="#FFFFFF" sketch:type="MSShapeGroup" mask="url(#mask-11)"></path>
                        </g>
                        <g>
                            <mask id="mask-13" sketch:name="SVGID_6_" fill="white">
                                <use xlink:href="#path-12"></use>
                            </mask>
                            <g id="SVGID_6_"></g>
                            <ellipse id="Oval" stroke="#FFFFFF" stroke-width="0.999966089" sketch:type="MSShapeGroup" mask="url(#mask-13)" cx="70.0034263" cy="93.5915129" rx="9.4776786" ry="4.80483706">
                                <g transform="translate(70.003426, 93.591513) rotate(3.307916) translate(-70.003426, -93.591513) "></g>
                            </ellipse>
                        </g>
                        <g>
                            <mask id="mask-15" sketch:name="SVGID_6_" fill="white">
                                <use xlink:href="#path-14"></use>
                            </mask>
                            <g id="SVGID_6_"></g>
                            <path d="M68.458,94.045 C68.458,94.818 67.832,95.443 67.059,95.443 C66.288,95.443 65.661,94.818 65.661,94.045 C65.661,93.274 66.288,92.647 67.059,92.647 C67.832,92.646 68.458,93.273 68.458,94.045" id="Shape" fill="#FFFFFF" sketch:type="MSShapeGroup" mask="url(#mask-15)"></path>
                        </g>
                        <g>
                            <mask id="mask-17" sketch:name="SVGID_6_" fill="white">
                                <use xlink:href="#path-16"></use>
                            </mask>
                            <g id="SVGID_6_"></g>
                            <path d="M73.844,94.129 C73.844,95.221 72.958,96.108 71.865,96.108 C70.773,96.108 69.888,95.221 69.888,94.129 C69.888,93.037 70.773,92.152 71.865,92.152 C72.958,92.152 73.844,93.037 73.844,94.129" id="Shape" fill="#FFFFFF" sketch:type="MSShapeGroup" mask="url(#mask-17)"></path>
                        </g>
                        <g>
                            <mask id="mask-19" sketch:name="SVGID_6_" fill="white">
                                <use xlink:href="#path-18"></use>
                            </mask>
                            <g id="SVGID_6_"></g>
                            <path d="M66.65,82.398 C64.416,82.773 62.148,83.011 59.951,83.087 C59.947,83.153 59.941,83.222 59.941,83.29 C59.941,85.175 61.47,86.704 63.356,86.704 C65.243,86.704 66.772,85.175 66.772,83.29 C66.772,82.98 66.728,82.684 66.65,82.398 M64.959,84.885 C64.675,84.885 64.443,84.655 64.443,84.371 C64.443,84.086 64.674,83.855 64.959,83.855 C65.242,83.855 65.474,84.085 65.474,84.371 C65.474,84.654 65.242,84.885 64.959,84.885" id="Shape" fill="#FFFFFF" sketch:type="MSShapeGroup" mask="url(#mask-19)"></path>
                        </g>
                        <g>
                            <mask id="mask-21" sketch:name="SVGID_6_" fill="white">
                                <use xlink:href="#path-20"></use>
                            </mask>
                            <g id="SVGID_6_"></g>
                            <path d="M81.348,76.746 C79.459,78.301 77.149,79.598 74.402,80.504 C72.759,81.045 71.013,81.518 69.22,81.906 C69.865,84.939 72.559,87.215 75.784,87.215 C79.491,87.215 82.496,84.211 82.496,80.504 C82.496,79.111 82.072,77.818 81.348,76.746 M79.676,82.848 C79.058,82.848 78.557,82.346 78.557,81.729 C78.557,81.112 79.058,80.612 79.676,80.612 C80.294,80.612 80.795,81.112 80.795,81.729 C80.795,82.346 80.294,82.848 79.676,82.848" id="Shape" fill="#FFFFFF" sketch:type="MSShapeGroup" mask="url(#mask-21)"></path>
                        </g>
                    </g>
                </g>
            </g>
            <g id="soon" sketch:type="MSLayerGroup" transform="translate(-1.000000, -1.000000)">
                <path d="M33.045,0.968 C15.325,0.968 0.959,15.333 0.959,33.055 L0.959,57.318 L59.402,0.968 L33.045,0.968 L33.045,0.968 Z M16.516,33.971 C15.625,34.819 14.804,35.223 14.051,35.177 C13.299,35.131 12.629,34.825 12.042,34.261 L12.998,33.351 C13.343,33.654 13.671,33.828 13.979,33.872 C14.54,33.948 15.135,33.684 15.766,33.083 C16.143,32.725 16.398,32.33 16.53,31.896 C16.663,31.463 16.57,31.08 16.25,30.744 C16.009,30.491 15.71,30.406 15.355,30.493 C15.131,30.549 14.754,30.731 14.222,31.034 L13.229,31.601 C12.597,31.963 12.086,32.185 11.694,32.261 C11.006,32.408 10.433,32.242 9.979,31.767 C9.446,31.207 9.219,30.559 9.297,29.822 C9.375,29.087 9.761,28.389 10.451,27.731 C11.354,26.87 12.255,26.512 13.152,26.653 C13.719,26.746 14.181,26.989 14.539,27.378 L13.599,28.273 C13.368,28.069 13.092,27.942 12.775,27.895 C12.294,27.858 11.764,28.114 11.187,28.664 C10.802,29.032 10.58,29.379 10.518,29.711 C10.456,30.044 10.538,30.328 10.761,30.563 C11.007,30.818 11.332,30.9 11.74,30.807 C11.977,30.756 12.275,30.626 12.635,30.416 L13.457,29.937 C14.351,29.418 14.998,29.12 15.4,29.046 C16.029,28.931 16.604,29.147 17.123,29.69 C17.625,30.219 17.857,30.866 17.818,31.635 C17.778,32.404 17.344,33.182 16.516,33.971 L16.516,33.971 Z M22.269,28.456 C21.461,29.227 20.557,29.563 19.557,29.465 C18.556,29.37 17.615,28.856 16.731,27.93 C15.784,26.937 15.28,25.906 15.22,24.84 C15.16,23.773 15.552,22.838 16.396,22.033 C17.154,21.31 18.036,20.955 19.043,20.964 C20.051,20.974 21.023,21.47 21.965,22.457 C22.873,23.411 23.393,24.418 23.525,25.479 C23.657,26.54 23.238,27.532 22.269,28.456 L22.269,28.456 Z M28.562,22.457 C27.753,23.228 26.85,23.565 25.85,23.468 C24.85,23.371 23.908,22.859 23.023,21.932 C22.077,20.938 21.573,19.908 21.512,18.842 C21.453,17.774 21.845,16.838 22.69,16.033 C23.447,15.312 24.329,14.956 25.336,14.964 C26.343,14.974 27.316,15.472 28.256,16.457 C29.166,17.411 29.685,18.418 29.816,19.48 C29.95,20.541 29.53,21.533 28.562,22.457 L28.562,22.457 Z M29.683,13.369 C29.831,13.625 30.089,13.945 30.458,14.332 L33.414,17.432 L32.419,18.379 L26.779,12.462 L27.724,11.562 L28.522,12.402 C28.474,11.789 28.532,11.258 28.703,10.809 C28.87,10.359 29.147,9.952 29.53,9.585 C30.37,8.786 31.216,8.538 32.068,8.843 C32.537,9.008 33.055,9.389 33.624,9.986 L37.241,13.781 L36.231,14.745 L32.676,11.017 C32.332,10.656 32,10.415 31.683,10.296 C31.156,10.097 30.659,10.217 30.195,10.66 C29.959,10.884 29.79,11.093 29.684,11.286 C29.488,11.626 29.404,12.017 29.429,12.455 C29.45,12.809 29.534,13.113 29.683,13.369 L29.683,13.369 Z" id="Fill-1" fill="#FCE841" sketch:type="MSShapeGroup"></path>
                <path d="M19.405,22.378 C18.61,22.098 17.873,22.281 17.196,22.926 C16.595,23.498 16.379,24.147 16.548,24.871 C16.717,25.594 17.113,26.285 17.738,26.939 C18.337,27.568 18.974,27.961 19.646,28.122 C20.32,28.28 20.952,28.077 21.546,27.512 C22.197,26.889 22.407,26.213 22.174,25.485 C21.941,24.756 21.533,24.086 20.951,23.473 C20.424,22.922 19.91,22.558 19.405,22.378" id="Fill-2" fill="#FCE841" sketch:type="MSShapeGroup"></path>
                <path d="M25.699,16.379 C24.903,16.099 24.167,16.281 23.489,16.926 C22.888,17.499 22.672,18.148 22.84,18.873 C23.01,19.596 23.405,20.286 24.031,20.94 C24.63,21.569 25.266,21.964 25.938,22.123 C26.612,22.281 27.245,22.079 27.838,21.512 C28.491,20.891 28.701,20.216 28.468,19.485 C28.234,18.756 27.826,18.086 27.245,17.476 C26.717,16.924 26.202,16.558 25.699,16.379" id="Fill-3" fill="#FCE841" sketch:type="MSShapeGroup"></path>
                <path d="M15.4,29.046 C14.998,29.12 14.351,29.418 13.457,29.937 L12.635,30.416 C12.275,30.626 11.977,30.756 11.74,30.807 C11.332,30.9 11.007,30.818 10.761,30.563 C10.538,30.328 10.456,30.044 10.518,29.711 C10.58,29.379 10.802,29.032 11.187,28.664 C11.764,28.114 12.294,27.858 12.775,27.895 C13.092,27.942 13.368,28.069 13.599,28.273 L14.539,27.378 C14.181,26.989 13.719,26.746 13.152,26.653 C12.255,26.512 11.354,26.87 10.451,27.731 C9.761,28.389 9.375,29.087 9.297,29.822 C9.219,30.559 9.446,31.207 9.979,31.767 C10.433,32.242 11.006,32.408 11.694,32.261 C12.086,32.185 12.597,31.963 13.229,31.601 L14.222,31.034 C14.754,30.731 15.131,30.549 15.355,30.493 C15.71,30.406 16.009,30.491 16.25,30.744 C16.57,31.08 16.663,31.463 16.53,31.896 C16.398,32.33 16.143,32.725 15.766,33.083 C15.135,33.684 14.54,33.948 13.979,33.872 C13.671,33.828 13.343,33.654 12.998,33.351 L12.042,34.261 C12.629,34.825 13.299,35.131 14.051,35.177 C14.804,35.223 15.625,34.819 16.516,33.971 C17.344,33.182 17.778,32.404 17.818,31.635 C17.857,30.866 17.625,30.219 17.123,29.69 C16.604,29.147 16.029,28.931 15.4,29.046" id="Fill-4" fill="#A15D2E" sketch:type="MSShapeGroup"></path>
                <path d="M19.043,20.964 C18.036,20.955 17.154,21.31 16.396,22.033 C15.552,22.838 15.16,23.773 15.22,24.84 C15.28,25.906 15.784,26.937 16.731,27.93 C17.615,28.856 18.556,29.37 19.557,29.465 C20.557,29.563 21.461,29.227 22.269,28.456 C23.238,27.532 23.657,26.54 23.525,25.479 C23.393,24.418 22.873,23.411 21.965,22.457 C21.023,21.47 20.051,20.974 19.043,20.964 L19.043,20.964 Z M21.546,27.512 C20.952,28.077 20.32,28.28 19.646,28.122 C18.974,27.961 18.337,27.568 17.738,26.939 C17.113,26.285 16.717,25.594 16.548,24.871 C16.379,24.147 16.595,23.498 17.196,22.926 C17.873,22.281 18.61,22.098 19.405,22.378 C19.91,22.558 20.424,22.922 20.951,23.473 C21.533,24.086 21.941,24.756 22.174,25.485 C22.407,26.213 22.197,26.889 21.546,27.512 L21.546,27.512 Z" id="Fill-5" fill="#A15D2E" sketch:type="MSShapeGroup"></path>
                <path d="M25.336,14.964 C24.329,14.956 23.447,15.312 22.69,16.033 C21.845,16.838 21.453,17.774 21.512,18.842 C21.573,19.908 22.077,20.938 23.023,21.932 C23.908,22.859 24.85,23.371 25.85,23.468 C26.85,23.565 27.753,23.228 28.562,22.457 C29.53,21.533 29.95,20.541 29.816,19.48 C29.685,18.418 29.166,17.411 28.256,16.457 C27.316,15.472 26.343,14.974 25.336,14.964 L25.336,14.964 Z M27.838,21.512 C27.245,22.079 26.612,22.281 25.938,22.123 C25.266,21.964 24.63,21.569 24.031,20.94 C23.405,20.286 23.01,19.596 22.84,18.873 C22.672,18.148 22.888,17.499 23.489,16.926 C24.167,16.281 24.903,16.099 25.699,16.379 C26.202,16.558 26.717,16.924 27.245,17.476 C27.826,18.086 28.234,18.756 28.468,19.485 C28.701,20.216 28.491,20.891 27.838,21.512 L27.838,21.512 Z" id="Fill-6" fill="#A15D2E" sketch:type="MSShapeGroup"></path>
                <path d="M30.195,10.66 C30.659,10.217 31.156,10.097 31.683,10.296 C32,10.415 32.332,10.656 32.676,11.017 L36.231,14.745 L37.241,13.781 L33.624,9.986 C33.055,9.389 32.537,9.008 32.068,8.843 C31.216,8.538 30.37,8.786 29.53,9.585 C29.147,9.952 28.87,10.359 28.703,10.809 C28.532,11.258 28.474,11.789 28.522,12.402 L27.724,11.562 L26.779,12.462 L32.419,18.379 L33.414,17.432 L30.458,14.332 C30.089,13.945 29.831,13.625 29.683,13.369 C29.534,13.113 29.45,12.809 29.429,12.455 C29.404,12.017 29.488,11.626 29.684,11.286 C29.79,11.093 29.959,10.884 30.195,10.66" id="Fill-7" fill="#A15D2E" sketch:type="MSShapeGroup"></path>
            </g>
        </g>
    </g>
</svg>