<?xml version="1.0" encoding="UTF-8" standalone="no"?>
<svg width="142px" height="142px" viewBox="0 0 142 142" version="1.1" xmlns="http://www.w3.org/2000/svg" xmlns:xlink="http://www.w3.org/1999/xlink" xmlns:sketch="http://www.bohemiancoding.com/sketch/ns">
    <!-- Generator: Sketch 3.2.2 (9983) - http://www.bohemiancoding.com/sketch -->
    <title>142</title>
    <desc>Created with Sketch.</desc>
    <defs>
        <linearGradient x1="50%" y1="30.703125%" x2="50%" y2="100%" id="linearGradient-1">
            <stop stop-color="#52EDC7" offset="0%"></stop>
            <stop stop-color="#59C8FA" offset="100%"></stop>
        </linearGradient>
        <path id="path-2" d="M49.5071167,0 L92.4928833,0 C106.7485,0 113.874533,0 121.54845,2.42583333 C129.92645,5.47528333 136.524717,12.07355 139.574167,20.45155 C142,28.1242833 142,35.2526833 142,49.5071167 L142,92.4928833 C142,106.7485 142,113.874533 139.574167,121.54845 C136.524717,129.92645 129.92645,136.524717 121.54845,139.572983 C113.874533,142 106.7485,142 92.4928833,142 L49.5071167,142 C35.2515,142 28.1242833,142 20.45155,139.572983 C12.07355,136.524717 5.47528333,129.92645 2.42583333,121.54845 C0,113.874533 0,106.7485 0,92.4928833 L0,49.5071167 C0,35.2526833 0,28.1242833 2.42583333,20.45155 C5.47528333,12.07355 12.07355,5.47528333 20.45155,2.42583333 C28.1242833,0 35.2515,0 49.5071167,0 L49.5071167,0"></path>
    </defs>
    <g id="Page-1" stroke="none" stroke-width="1" fill="none" fill-rule="evenodd" sketch:type="MSPage">
        <g id="142" sketch:type="MSArtboardGroup">
            <g id="work" sketch:type="MSLayerGroup">
                <mask id="mask-3" sketch:name="Superellipse 4" fill="white">
                    <use xlink:href="#path-2"></use>
                </mask>
                <use id="Superellipse-4" fill="url(#linearGradient-1)" sketch:type="MSShapeGroup" xlink:href="#path-2"></use>
                <path d="M36.7810034,86.3430103 L106.217418,86.3430103 L106.217418,45.3124014 L36.7810034,45.3124014 L36.7810034,86.3430103 Z M60.4525086,97.3897127 L82.5459133,97.3897127 L82.5459133,94.233512 L60.4525086,94.233512 L60.4525086,97.3897127 Z M117.264121,102.124014 L25.734301,102.124014 C23.1193888,102.124014 21,100.004625 21,97.3897127 L21,89.4992109 L30.4686021,89.4992109 L30.4686021,43.734301 C30.4686021,41.1193888 32.5895689,39 35.2029031,39 L107.795519,39 C110.410431,39 112.52982,41.1193888 112.52982,43.734301 L112.52982,89.4992109 L122,89.4992109 L122,97.3897127 C122,100.004625 119.879033,102.124014 117.264121,102.124014 L117.264121,102.124014 Z" id="Fill-222" fill="#FFFFFF" sketch:type="MSShapeGroup" mask="url(#mask-3)"></path>
            </g>
        </g>
    </g>
</svg>